<?xml version="1.0" encoding="UTF-8"?>
<svg width="200" height="200" viewBox="0 0 200 200" fill="none" xmlns="http://www.w3.org/2000/svg">
    <!-- Arka plan daire -->
    <circle cx="100" cy="100" r="95" fill="#F3F4F6" />
    
    <!-- Etiket şekli -->
    <path d="M60 70C60 64.4772 64.4772 60 70 60H130C132.652 60 135.196 61.0536 137.071 62.9289L157.071 82.9289C158.946 84.8043 160 87.3478 160 90V130C160 135.523 155.523 140 150 140H70C64.4772 140 60 135.523 60 130V70Z" fill="#E5E7EB"/>
    
    <!-- İndirim yüzdesi -->
    <path d="M85 95L115 125M115 95L85 125" stroke="#9CA3AF" stroke-width="6" stroke-linecap="round"/>
    <circle cx="85" cy="95" r="4" fill="#9CA3AF"/>
    <circle cx="115" cy="125" r="4" fill="#9CA3AF"/>
    
    <!-- Etiket deliği -->
    <circle cx="75" cy="75" r="5" fill="#D1D5DB"/>
</svg> 